<svg version="1" xmlns="http://www.w3.org/2000/svg" width="682.667" height="682.667" viewBox="0 0 512.000000 512.000000"><path d="M228 119.1C128.2 129 53.2 183 47.2 249.4c-4.2 45.8 22.9 88 75.3 117.4 21.5 12 52.3 22.5 81.8 27.8l3.7.6V311h25v75h10v-75h27v75h11v-75h23.7l.6 8.2c.4 4.6.7 23.5.7 42 0 18.6.2 33.8.5 33.8s6-1.2 12.7-2.6c42.7-9 77.1-24.9 104.5-48.3 30.6-26.2 46.5-62.1 42.5-95.9-7.4-62.9-73-113.3-165.7-127.2-16.2-2.5-56.6-3.5-72.5-1.9zm49 14.9c59.1 4.5 108.4 23.7 141.5 55.1 33 31.3 41.7 71.7 23.5 107.9-14.7 29.3-48.1 55.4-90 70.4-8.3 3-27.6 8.6-29.7 8.6-1 0-1.3-6.2-1.3-32.5V311l17.6-.2 17.7-.3v-10l-99.7-.3-99.6-.2v11h36v32.5c0 31.4-.1 32.5-1.9 32.5-1.1 0-7.3-1.5-13.8-3.4-58.7-16.9-100.7-51.4-112.5-92.2-3-10.3-3.2-32.2-.5-42.4 2.8-10.4 11.9-27.5 19.8-37.2 36.5-45.2 115.6-72.6 192.9-66.8z"/><path d="M141.7 181.7c-.4.3-.7 2.8-.7 5.5v4.8h231.1l-.3-5.3-.3-5.2-114.6-.3c-63-.1-114.9.1-115.2.5zm18.8 22.7c-13.6 4.4-24.3 13.8-30.2 26.2-10.4 21.8-1.6 47.3 19.5 57.2 4.9 2.3 7 2.7 15.2 2.7s10.3-.4 15.1-2.6c7.9-3.7 13.3-9 17.1-16.7 6.4-13 3.6-27.9-6.8-37.1-13.3-11.7-33.3-8.4-40.1 6.6-3.3 7.1-2.9 14.3 1.1 20.3 2.9 4.5 9 7.9 13.9 8 6.6 0 13.7-6.1 13.7-11.8 0-2.3-.2-2.4-5.2-1.7-2.9.4-5.7 1.1-6.3 1.6-3.1 3-8.5-1.2-8.5-6.6 0-7.4 5.5-12.5 13.4-12.5 14.6 0 22.4 17.1 14 30.7-4.1 6.6-10.5 10.4-18.6 11-7.9.7-13.5-.8-19-5-8.5-6.5-13.7-18.6-12.3-28.7 2.3-17 19-32.4 34.9-32.4 5.6.1 7.2.6 19.8 7.3 24.9 13.2 37.7 17 59.9 17.8 24.8 1 40.9-3 68.7-16.8l16.3-8.1 7.2.4c22.8 1.3 39.4 25.6 31.7 46.2-7.8 20.6-32.8 26.3-46.2 10.7-11.1-13-3.6-33.1 12.4-33.1 10.6 0 17.5 11.2 11.1 18.2-1.7 1.9-5.3 2.4-6.9.9-.5-.6-3.3-1.3-6.3-1.7l-5.4-.7.7 3.4c1.3 6.9 9.5 11.9 17.1 10.5 4.6-.9 11-6.6 12.5-11.2 3.7-11.1-1.1-22.3-12-28-5.2-2.7-17.1-2.6-22.6.3-6.3 3.4-9.7 6.6-12.9 12.5-2.7 4.8-3 6.1-3 14.8 0 7.9.4 10.3 2.3 14.2 3.4 6.8 9.4 12.5 17 16.1 6 2.9 7.7 3.2 15.7 3.2 8 0 9.7-.3 15.7-3.2 12.4-5.8 20.6-17.2 23-31.8 3.5-20.8-11.2-43.1-33.3-50.5-5.1-1.8-8-2.1-14.1-1.8-7.2.4-8.7.9-20.5 7-36.2 18.7-61 22.5-92.4 14.3-6.6-1.7-14.9-5.2-27.8-11.7-18.3-9.2-18.5-9.3-26.5-9.5-4.7-.2-9.8.3-12.1 1.1z"/><path d="M214.7 264.7c-.4.3-.7 2.8-.7 5.5v4.8h85v-11h-41.8c-23 0-42.2.3-42.5.7z"/></svg>